<?xml version="1.0" encoding="iso-8859-1"?>
<svg xmlns="http://www.w3.org/2000/svg" xmlns:xlink="http://www.w3.org/1999/xlink" version="1.1" viewBox="0 0 34 34" enable-background="new 0 0 34 34" width="512px" height="512px">
  <g>
    <g>
      <g>
        <path fill-rule="evenodd" d="m33,18h-7c-0.553,0-1,0.447-1,1 0,0.552 0.447,1 1,1h6v11h-20v-2c0-0.553-0.447-1-1-1-0.553,0-1,0.447-1,1v3c0,0.552 0.447,1 1,1h22c0.552,0 1-0.448 1-1v-13c0-0.553-0.448-1-1-1zm-25-4h-6v-11h20v2c0,0.552 0.447,1 1,1 0.553,0 1-0.448 1-1v-3c0-0.553-0.447-1-1-1h-22c-0.553,0-1,0.447-1,1v13c0,0.553 0.447,1 1,1h7c0.552,0 1-0.447 1-1 0-0.553-0.448-1-1-1z" fill="#FFFFFF"/>
      </g>
    </g>
    <g>
      <g>
        <path fill-rule="evenodd" d="m30.931,11.657c-0.022-0.21-0.085-0.414-0.247-0.575l-2.828-2.828c-0.391-0.391-1.023-0.391-1.414,0-0.391,0.391-0.391,1.023 0,1.414l1.331,1.332h-16.773c-0.553,0-1,0.447-1,1 0,0.552 0.447,1 1,1h16.711l-1.269,1.27c-0.391,0.391-0.391,1.023 0,1.414 0.391,0.391 1.023,0.391 1.414,0l2.828-2.828c0.143-0.143 0.211-0.317 0.244-0.499 0.043-0.112 0.072-0.231 0.072-0.357 0-0.122-0.029-0.235-0.069-0.343zm-8.931,9.281h-16.711l1.27-1.269c0.391-0.391 0.391-1.023 0-1.414s-1.023-0.391-1.414,0l-2.828,2.828c-0.143,0.142-0.211,0.316-0.244,0.499-0.044,0.11-0.073,0.228-0.073,0.356 0,0.122 0.029,0.235 0.069,0.343 0.023,0.21 0.085,0.413 0.247,0.575l2.828,2.828c0.391,0.391 1.024,0.391 1.414,0 0.391-0.391 0.391-1.023 0-1.414l-1.332-1.332h16.774c0.553,0 1-0.448 1-1 0-0.553-0.447-1-1-1z" fill="#FFFFFF"/>
      </g>
    </g>
  </g>
</svg>
